<?xml version="1.0" encoding="utf-8"?>
<!-- Generator: Adobe Illustrator 27.3.1, SVG Export Plug-In . SVG Version: 6.00 Build 0)  -->
<svg version="1.1" id="Слой_1" xmlns="http://www.w3.org/2000/svg" xmlns:xlink="http://www.w3.org/1999/xlink" x="0px" y="0px"
	 viewBox="0 0 400 400" style="enable-background:new 0 0 400 400;" xml:space="preserve">
<style type="text/css">
	.st0{fill:#333333;}
</style>
<g>
	<g>
		<g>
			<path class="st0" d="M308,348.7c-18.8-19.1-37.6-38.2-56.5-57.2c-29.9-30.3-59.7-60.5-89.6-90.8c-6.9-7-13.8-13.9-20.6-20.9
				c-9.9-10.1-28.4-10.7-38.2,0c-10,10.8-10.6,27.4,0,38.2c18.8,19.1,37.6,38.2,56.5,57.2c29.9,30.3,59.7,60.5,89.6,90.8
				c6.9,7,13.8,13.9,20.6,20.9c9.9,10.1,28.4,10.7,38.2,0C317.9,376,318.6,359.4,308,348.7L308,348.7z"/>
		</g>
	</g>
	<g>
		<g>
			<path class="st0" d="M269.7,11.2C250.9,30,232,48.8,213.2,67.7c-30,30-60,60-90.1,90.1c-6.9,6.9-13.8,13.8-20.7,20.7
				c-10,10-10.8,28.3,0,38.2c10.8,9.9,27.5,10.7,38.2,0c18.8-18.8,37.7-37.7,56.5-56.5c30-30,60-60,90.1-90.1
				c6.9-6.9,13.8-13.8,20.7-20.7c10-10,10.8-28.3,0-38.2C297.1,1.3,280.4,0.5,269.7,11.2L269.7,11.2z"/>
		</g>
	</g>
</g>
</svg>
