<?xml version="1.0" encoding="utf-8"?>
<!-- Generator: Adobe Illustrator 27.3.1, SVG Export Plug-In . SVG Version: 6.00 Build 0)  -->
<svg version="1.1" id="Слой_1" xmlns="http://www.w3.org/2000/svg" xmlns:xlink="http://www.w3.org/1999/xlink" x="0px" y="0px"
	 viewBox="0 0 400 400" style="enable-background:new 0 0 400 400;" xml:space="preserve">
<style type="text/css">
	.st0{fill:#333333;}
</style>
<g>
	<g>
		<g>
			<path class="st0" d="M102.41,49.41c18.83,19.08,37.65,38.16,56.48,57.24c29.87,30.27,59.74,60.54,89.62,90.81
				c6.88,6.97,13.76,13.94,20.64,20.92c9.94,10.07,28.36,10.7,38.18,0c9.95-10.84,10.6-27.44,0-38.18
				c-18.83-19.08-37.65-38.16-56.48-57.24c-29.87-30.27-59.74-60.54-89.62-90.81c-6.88-6.97-13.76-13.94-20.64-20.92
				c-9.94-10.07-28.36-10.7-38.18,0C92.46,22.06,91.8,38.67,102.41,49.41L102.41,49.41z"/>
		</g>
	</g>
	<g>
		<g>
			<path class="st0" d="M140.66,386.95c18.83-18.83,37.67-37.67,56.5-56.5c30.02-30.02,60.04-60.04,90.06-90.06
				c6.89-6.89,13.78-13.78,20.67-20.67c10-10,10.75-28.32,0-38.18c-10.78-9.89-27.51-10.67-38.18,0
				c-18.83,18.83-37.67,37.67-56.5,56.5c-30.02,30.02-60.04,60.04-90.06,90.06c-6.89,6.89-13.78,13.78-20.67,20.67
				c-10,10-10.75,28.32,0,38.18C113.26,396.84,129.99,397.62,140.66,386.95L140.66,386.95z"/>
		</g>
	</g>
</g>
</svg>
