<?xml version="1.0" encoding="utf-8"?>
<!-- Generator: Adobe Illustrator 27.3.1, SVG Export Plug-In . SVG Version: 6.00 Build 0)  -->
<svg version="1.1" id="Слой_1" xmlns="http://www.w3.org/2000/svg" xmlns:xlink="http://www.w3.org/1999/xlink" x="0px" y="0px"
	 viewBox="0 0 595.28 651.97" style="enable-background:new 0 0 595.28 651.97;" xml:space="preserve">
<style type="text/css">
	.st0{fill:#EC671B;stroke:#EC671B;stroke-width:63;stroke-miterlimit:10;}
	.st1{fill:#EC671B;}
</style>
<g>
	<path class="st0" d="M457.46,55H144.89c-32.29,0-58.46,26.17-58.46,58.46v422.35c0,20.5,10.56,38.52,26.52,48.95l182.21-103.57
		c3.73-2.12,8.31-2.12,12.05,0l182.21,103.57c15.96-10.44,26.52-28.46,26.52-48.95V113.46C515.92,81.17,489.75,55,457.46,55z"/>
	<g>
		<line class="st1" x1="85.67" y1="444.71" x2="85.67" y2="601.48"/>
		<g>
			<path class="st1" d="M54.92,444.71c0,45.76,0,91.52,0,137.28c0,6.49,0,12.99,0,19.48c0,16.08,14.14,31.49,30.75,30.75
				c16.66-0.75,30.75-13.51,30.75-30.75c0-45.76,0-91.52,0-137.28c0-6.49,0-12.99,0-19.48c0-16.08-14.14-31.49-30.75-30.75
				C69.01,414.71,54.92,427.48,54.92,444.71L54.92,444.71z"/>
		</g>
	</g>
	<g>
		<line class="st1" x1="516.8" y1="444.71" x2="516.8" y2="601.48"/>
		<g>
			<path class="st1" d="M486.05,444.71c0,45.76,0,91.52,0,137.28c0,6.49,0,12.99,0,19.48c0,16.08,14.14,31.49,30.75,30.75
				c16.66-0.75,30.75-13.51,30.75-30.75c0-45.76,0-91.52,0-137.28c0-6.49,0-12.99,0-19.48c0-16.08-14.14-31.49-30.75-30.75
				C500.13,414.71,486.05,427.48,486.05,444.71L486.05,444.71z"/>
		</g>
	</g>
	<g>
		<line class="st1" x1="131.4" y1="598.76" x2="93.83" y2="620.14"/>
		<g>
			<path class="st1" d="M126.23,589.91c-4.24,2.41-8.47,4.82-12.71,7.23c-6.72,3.83-13.44,7.65-20.17,11.48
				c-1.57,0.89-3.13,1.78-4.7,2.67c-2.22,1.27-4.03,3.67-4.71,6.13c-0.68,2.45-0.37,5.72,1.03,7.9c3.04,4.71,9.04,6.52,14.02,3.68
				c4.24-2.41,8.47-4.82,12.71-7.23c6.72-3.83,13.44-7.65,20.17-11.48c1.57-0.89,3.13-1.78,4.7-2.67c2.22-1.27,4.03-3.67,4.71-6.13
				c0.68-2.45,0.37-5.72-1.03-7.9C137.22,588.87,131.22,587.07,126.23,589.91L126.23,589.91z"/>
		</g>
	</g>
	<g>
		<line class="st1" x1="506.44" y1="619.28" x2="469" y2="597.66"/>
		<g>
			<path class="st1" d="M511.62,610.43c-4.22-2.44-8.44-4.87-12.66-7.31c-6.7-3.87-13.4-7.73-20.09-11.6
				c-1.56-0.9-3.12-1.8-4.68-2.7c-2.31-1.33-5.32-1.74-7.9-1.03c-2.38,0.65-4.95,2.49-6.13,4.71c-2.58,4.89-1.28,11.16,3.68,14.02
				c4.22,2.44,8.44,4.87,12.66,7.31c6.7,3.87,13.4,7.73,20.09,11.6c1.56,0.9,3.12,1.8,4.68,2.7c2.31,1.33,5.32,1.74,7.9,1.03
				c2.38-0.65,4.95-2.49,6.13-4.71C517.88,619.56,516.58,613.29,511.62,610.43L511.62,610.43z"/>
		</g>
	</g>
</g>
</svg>
