<?xml version="1.0" encoding="utf-8"?>
<!-- Generator: Adobe Illustrator 27.3.1, SVG Export Plug-In . SVG Version: 6.00 Build 0)  -->
<svg version="1.1" id="Слой_1" xmlns="http://www.w3.org/2000/svg" xmlns:xlink="http://www.w3.org/1999/xlink" x="0px" y="0px"
	 viewBox="0 0 400 400" style="enable-background:new 0 0 400 400;" xml:space="preserve">
<style type="text/css">
	.st0{fill:#FFFFFF;}
</style>
<g>
	<g>
		<g>
			<path class="st0" d="M46,123.5c35,0,70.1,0,105.1,0c55.4,0,110.8,0,166.2,0c12.7,0,25.4,0,38.1,0c13.5,0,26.5-11.9,25.9-25.9
				c-0.6-14-11.4-25.9-25.9-25.9c-35,0-70.1,0-105.1,0c-55.4,0-110.8,0-166.2,0c-12.7,0-25.4,0-38.1,0c-13.5,0-26.5,11.9-25.9,25.9
				C20.7,111.6,31.4,123.5,46,123.5L46,123.5z"/>
		</g>
	</g>
	<g>
		<g>
			<path class="st0" d="M46,330.2c35,0,70.1,0,105.1,0c55.4,0,110.8,0,166.2,0c12.7,0,25.4,0,38.1,0c13.5,0,26.5-11.9,25.9-25.9
				c-0.6-14-11.4-25.9-25.9-25.9c-35,0-70.1,0-105.1,0c-55.4,0-110.8,0-166.2,0c-12.7,0-25.4,0-38.1,0c-13.5,0-26.5,11.9-25.9,25.9
				C20.7,318.4,31.4,330.2,46,330.2L46,330.2z"/>
		</g>
	</g>
	<g>
		<g>
			<path class="st0" d="M46,226.9c35,0,70.1,0,105.1,0c55.4,0,110.8,0,166.2,0c12.7,0,25.4,0,38.1,0c13.5,0,26.5-11.9,25.9-25.9
				c-0.6-14-11.4-25.9-25.9-25.9c-35,0-70.1,0-105.1,0c-55.4,0-110.8,0-166.2,0c-12.7,0-25.4,0-38.1,0c-13.5,0-26.5,11.9-25.9,25.9
				C20.7,215,31.4,226.9,46,226.9L46,226.9z"/>
		</g>
	</g>
</g>
</svg>
