<?xml version="1.0" encoding="utf-8"?>
<!-- Generator: Adobe Illustrator 27.3.1, SVG Export Plug-In . SVG Version: 6.00 Build 0)  -->
<svg version="1.1" id="Слой_1" xmlns="http://www.w3.org/2000/svg" xmlns:xlink="http://www.w3.org/1999/xlink" x="0px" y="0px"
	 viewBox="0 0 595.3 652" style="enable-background:new 0 0 595.3 652;" xml:space="preserve">
<style type="text/css">
	.st0{fill:none;stroke:#CC9932;stroke-width:54;stroke-miterlimit:10;}
	.st1{fill:none;stroke:#CC9933;stroke-width:43;stroke-miterlimit:10;}
</style>
<g>
	<g>
		<path class="st0" d="M529,237.1h9.5c1.1,0,1.6-1.4,0.7-2.1L297.9,46.8c-0.4-0.3-1-0.3-1.5,0L55.1,234.9"/>
		<path class="st0" d="M55.1,234.9c-0.9,0.7-0.4,2.1,0.7,2.1h7.3"/>
		<path class="st0" d="M54.6,237.9v294.4c0,29.4,23.8,53.2,53.2,53.2h378.7c29.4,0,53.2-23.8,53.2-53.2V237.9"/>
		<path class="st0" d="M378.7,585.5H217.2c-0.3,0-0.6-0.3-0.6-0.6V316.6c0-0.3,0.3-0.6,0.6-0.6h161.5c0.3,0,0.6,0.3,0.6,0.6V585
			C379.2,585.3,379,585.5,378.7,585.5z"/>
	</g>
	<line class="st1" x1="502.6" y1="207.8" x2="551.7" y2="245.7"/>
	<line class="st1" x1="94.3" y1="205.4" x2="45.3" y2="243.3"/>
</g>
</svg>
