<?xml version="1.0" encoding="utf-8"?>
<!-- Generator: Adobe Illustrator 27.3.1, SVG Export Plug-In . SVG Version: 6.00 Build 0)  -->
<svg version="1.1" id="Слой_1" xmlns="http://www.w3.org/2000/svg" xmlns:xlink="http://www.w3.org/1999/xlink" x="0px" y="0px"
	 viewBox="0 0 595.28 680.31" style="enable-background:new 0 0 595.28 680.31;" xml:space="preserve">
<style type="text/css">
	.st0{fill:none;stroke:#CC9932;stroke-width:23;stroke-miterlimit:10;}
	.st1{fill:#CC9932;}
</style>
<g>
	<path class="st0" d="M305.64,26.47L54.27,176.55c-0.79,0.47-0.45,1.68,0.46,1.68h502.74c0.92,0,1.25-1.21,0.46-1.68L306.57,26.47
		C306.28,26.3,305.93,26.3,305.64,26.47z"/>
	<g>
		<g>
			<path class="st1" d="M18.62,657c18.73,0,37.45,0,56.18,0c44.61,0,89.21,0,133.82,0c53.91,0,107.82,0,161.72,0
				c46.74,0,93.49,0,140.23,0c22.65,0,45.42,0.68,68.06,0c0.31-0.01,0.62,0,0.93,0c15.44,0,15.47-24,0-24c-18.73,0-37.45,0-56.18,0
				c-44.61,0-89.21,0-133.82,0c-53.91,0-107.82,0-161.72,0c-46.74,0-93.49,0-140.23,0c-22.65,0-45.42-0.68-68.06,0
				c-0.31,0.01-0.62,0-0.93,0C3.18,633,3.15,657,18.62,657L18.62,657z"/>
		</g>
	</g>
	<g>
		<g>
			<path class="st1" d="M99.57,305.19c0,23.9,0,47.79,0,71.69c0,38.07,0,76.15,0,114.22c0,8.72,0,17.43,0,26.15
				c0,15.44,24,15.47,24,0c0-23.9,0-47.79,0-71.69c0-38.07,0-76.15,0-114.22c0-8.72,0-17.43,0-26.15
				C123.57,289.75,99.57,289.72,99.57,305.19L99.57,305.19z"/>
		</g>
	</g>
	<g>
		<g>
			<path class="st1" d="M228.59,305.19c0,23.9,0,47.79,0,71.69c0,38.07,0,76.15,0,114.22c0,8.72,0,17.43,0,26.15
				c0,15.44,24,15.47,24,0c0-23.9,0-47.79,0-71.69c0-38.07,0-76.15,0-114.22c0-8.72,0-17.43,0-26.15
				C252.59,289.75,228.59,289.72,228.59,305.19L228.59,305.19z"/>
		</g>
	</g>
	<g>
		<g>
			<path class="st1" d="M345.67,305.19c0,23.9,0,47.79,0,71.69c0,38.07,0,76.15,0,114.22c0,8.72,0,17.43,0,26.15
				c0,15.44,24,15.47,24,0c0-23.9,0-47.79,0-71.69c0-38.07,0-76.15,0-114.22c0-8.72,0-17.43,0-26.15
				C369.67,289.75,345.67,289.72,345.67,305.19L345.67,305.19z"/>
		</g>
	</g>
	<g>
		<g>
			<path class="st1" d="M474.43,305.19c0,23.9,0,47.79,0,71.69c0,38.07,0,76.15,0,114.22c0,8.72,0,17.43,0,26.15
				c0,15.44,24,15.47,24,0c0-23.9,0-47.79,0-71.69c0-38.07,0-76.15,0-114.22c0-8.72,0-17.43,0-26.15
				C498.43,289.75,474.43,289.72,474.43,305.19L474.43,305.19z"/>
		</g>
	</g>
</g>
</svg>
