<?xml version="1.0" encoding="utf-8"?>
<!-- Generator: Adobe Illustrator 27.3.1, SVG Export Plug-In . SVG Version: 6.00 Build 0)  -->
<svg version="1.1" id="Слой_1" xmlns="http://www.w3.org/2000/svg" xmlns:xlink="http://www.w3.org/1999/xlink" x="0px" y="0px"
	 viewBox="0 0 595.28 651.97" style="enable-background:new 0 0 595.28 651.97;" xml:space="preserve">
<style type="text/css">
	.st0{fill:none;stroke:#CC9932;stroke-width:54;stroke-miterlimit:10;}
</style>
<g>
	<path class="st0" d="M529.02,237.1h9.55c1.14,0,1.63-1.44,0.73-2.14L297.94,46.82c-0.43-0.34-1.04-0.34-1.47,0L55.12,234.95"/>
	<path class="st0" d="M55.12,234.95c-0.9,0.7-0.4,2.14,0.74,2.14h7.34"/>
	<path class="st0" d="M54.62,237.92v294.41c0,29.39,23.82,53.21,53.21,53.21h378.73c29.39,0,53.21-23.82,53.21-53.21V237.92"/>
	<path class="st0" d="M378.68,585.54H217.19c-0.32,0-0.57-0.26-0.57-0.57V316.59c0-0.32,0.26-0.57,0.57-0.57h161.49
		c0.32,0,0.57,0.26,0.57,0.57v268.38C379.25,585.28,379,585.54,378.68,585.54z"/>
</g>
</svg>
